PathFileType	4	(X/Y/Z)	s09c0402.trc
DataRate	CameraRate	NumFrames	NumMarkers	Units	OrigDataRate	OrigDataStartFrame	OrigNumFrames
200	200	4	50	mm	200	1000	2000
Frame#	Time	racr			lacr			c7			jug			rlel			rdr			llel			ldr			s2			lic			ric			lasi			rasi			rpsi			lpsi			rgt			lgt			rth1			rth2			rth3			rth4			rlfc			rmfc			rsh1			rsh2			rsh3			rsh4			rlmal			rmmal			rcal			rtoe			rmt5			lth1			lth2			lth4			lth3			llfc			lmfc			llmal			lmmal			lcal			lmt5			lsh1			lsh2			lsh3			lsh4			ltoe			SBIKE			LBIKE			RBIKE			
		X1	Y1	Z1	X2	Y2	Z2	X3	Y3	Z3	X4	Y4	Z4	X5	Y5	Z5	X6	Y6	Z6	X7	Y7	Z7	X8	Y8	Z8	X9	Y9	Z9	X10	Y10	Z10	X11	Y11	Z11	X12	Y12	Z12	X13	Y13	Z13	X14	Y14	Z14	X15	Y15	Z15	X16	Y16	Z16	X17	Y17	Z17	X18	Y18	Z18	X19	Y19	Z19	X20	Y20	Z20	X21	Y21	Z21	X22	Y22	Z22	X23	Y23	Z23	X24	Y24	Z24	X25	Y25	Z25	X26	Y26	Z26	X27	Y27	Z27	X28	Y28	Z28	X29	Y29	Z29	X30	Y30	Z30	X31	Y31	Z31	X32	Y32	Z32	X33	Y33	Z33	X34	Y34	Z34	X35	Y35	Z35	X36	Y36	Z36	X37	Y37	Z37	X38	Y38	Z38	X39	Y39	Z39	X40	Y40	Z40	X41	Y41	Z41	X42	Y42	Z42	X43	Y43	Z43	X44	Y44	Z44	X45	Y45	Z45	X46	Y46	Z46	X47	Y47	Z47	X48	Y48	Z48	X49	Y49	Z49	X50	Y50	Z50	
1000	5.0000	699.850063	1288.151735	-33.712214	723.306208	1278.020034	-418.546185	725.725177	1371.969180	-226.887424	727.526004	1237.840940	-224.228832	542.870738	1083.486924	37.122312	690.406266	909.076522	-39.439057	545.330454	1094.410266	-537.902993	678.301138	902.655370	-459.410737	265.282191	1161.119095	-292.137941	428.477343	1107.679000	-398.354172	378.308642	1166.067492	-113.960763	445.694767	1050.624761	-354.213844	411.638504	1102.951097	-119.185798	287.380022	1197.423647	-230.371274	311.503868	1181.396118	-340.087384	335.902312	1041.388557	-59.864827	355.472621	980.335860	-433.809328	449.909882	951.037299	-59.963607	530.625700	915.276367	-67.031700	577.053856	841.878809	-65.342765	549.600898	936.226852	-90.303890	622.205148	748.698074	-95.972426	602.644068	736.353829	-196.753274	523.744451	717.268522	-70.631081	455.083872	661.608885	-85.499158	368.631773	648.121381	-84.456242	468.432426	639.797280	-115.083065	276.961337	602.774604	-86.874779	284.795932	611.430250	-162.906367	191.461488	628.354206	-123.932933	390.298756	453.197927	-129.748086	317.794983	492.935476	-63.964945	365.822069	851.786424	-425.067395	398.516173	774.101389	-411.812453	432.518592	778.828560	-394.825824	387.237507	684.344619	-406.486665	382.860400	591.791389	-388.813099	380.114219	574.555458	-292.224441	229.106683	258.743491	-409.440479	251.484395	260.114184	-342.361480	156.788058	247.662574	-374.215555	297.632845	143.734170	-431.199954	332.826265	503.770818	-416.037450	322.336600	418.021271	-410.947083	269.161436	347.106733	-412.106715	347.331228	409.390117	-380.760274	387.821381	127.519560	-360.082883	-64.726792	852.448103	-240.928779	21.146071	83.866966	-442.043521	21.118337	83.967864	-43.985821	
1001	5.0050	698.597494	1288.722379	-30.510420	724.683479	1277.804464	-415.191369	726.049374	1371.688779	-223.670500	727.509464	1237.718778	-220.860756	542.326291	1082.815692	38.848613	690.519592	909.233343	-38.967150	546.273838	1095.295691	-536.102111	678.580037	902.623308	-459.552439	266.084451	1162.033324	-293.494466	431.106968	1107.571176	-397.059562	376.905648	1167.576169	-114.809779	446.836830	1050.927176	-353.334460	410.477314	1104.166211	-118.448747	287.339006	1198.335157	-231.942350	312.896009	1182.467442	-341.251676	334.855374	1043.372047	-60.407013	356.701465	980.985429	-433.890184	449.511917	953.813593	-60.495638	530.428203	919.712501	-65.795840	578.680210	846.786586	-66.163193	549.421527	940.481951	-89.694789	625.799102	754.525857	-95.893173	607.010978	741.848731	-196.737663	528.401741	721.744731	-70.361214	460.423027	664.566451	-85.408321	374.126662	649.425964	-84.479622	474.192643	642.877421	-114.917656	284.365521	602.287480	-86.120129	291.057657	611.828721	-163.348304	197.211317	625.917808	-123.832339	400.193540	455.786393	-129.799352	326.757868	493.613687	-63.971022	365.029646	852.392310	-425.664401	396.834308	774.237866	-412.599907	430.708447	778.599809	-395.313999	384.436013	684.634328	-407.387387	379.169907	592.212733	-389.492787	375.913318	575.041932	-292.474771	222.404986	260.339766	-409.444262	245.224222	261.335059	-342.860432	150.223820	250.821644	-373.929551	288.832191	144.024160	-431.053530	328.651219	504.656178	-416.522259	317.321907	418.949428	-411.245124	263.519600	348.472945	-412.368612	342.281976	410.217257	-381.159331	378.446747	125.707352	-359.983065	-64.736640	852.485565	-240.837535	21.119274	83.815699	-442.112394	21.133692	83.969643	-43.976775	
1002	5.0100	697.417962	1289.223027	-27.401655	726.153220	1277.364647	-411.838326	726.434948	1371.417746	-220.601569	726.931789	1237.409917	-217.456205	541.883407	1082.143241	40.575760	690.586052	909.498027	-38.389875	547.193638	1096.080955	-534.335554	678.821505	902.529767	-459.735724	266.843541	1163.191341	-294.777669	433.498994	1107.933155	-396.117581	376.047528	1169.017630	-115.043248	447.853020	1051.471460	-352.494447	409.340288	1105.235607	-117.562291	287.868664	1199.679206	-233.424173	314.077334	1183.411940	-342.215518	334.092208	1045.478371	-60.997596	357.534974	981.768222	-433.848083	448.988638	956.124827	-61.275975	530.397676	923.414391	-65.737433	579.815858	851.337697	-66.084281	548.839185	944.610764	-88.726371	629.238958	760.028100	-95.770153	611.233275	747.115963	-196.529904	532.309573	725.448640	-70.596338	465.642247	667.081943	-85.315761	379.641292	650.318804	-84.470372	479.731484	645.621826	-114.578284	289.838488	601.143153	-86.700043	296.807470	611.083531	-163.748930	202.961801	622.829642	-123.586369	410.104818	457.799845	-129.835875	335.569692	493.750418	-63.947758	364.342098	853.114809	-426.504798	395.163131	774.379721	-413.679231	429.212285	778.648862	-396.047229	382.088709	685.280880	-408.172349	376.024423	592.635705	-390.282460	372.507353	575.633162	-292.681324	215.840117	262.281105	-409.365837	238.117671	262.799935	-342.728173	143.495882	254.229780	-373.398794	279.716455	144.820127	-430.860714	324.865964	505.597859	-416.883739	312.470705	420.113662	-411.350039	257.811254	350.275261	-412.363750	337.330238	411.007936	-381.225420	369.044739	124.399062	-359.885218	-64.750110	852.536243	-240.762158	21.140619	83.845480	-442.110199	21.131838	83.974959	-43.965647	
1003	5.0150	696.379191	1289.602345	-24.420136	727.629997	1276.717910	-408.557065	726.897266	1370.860051	-217.554591	727.101273	1236.931621	-214.248967	541.603760	1081.426808	42.217776	690.628565	909.627557	-38.020853	548.044878	1096.840511	-532.608694	680.474647	903.667326	-461.057422	267.600264	1164.440615	-295.759926	435.405960	1108.701798	-395.478632	375.320330	1170.321966	-115.363954	448.747757	1052.244455	-351.747427	408.296154	1106.508095	-116.759221	288.140245	1201.002829	-234.402326	314.972752	1184.592388	-342.134844	333.806837	1047.358725	-62.255940	358.066828	982.684152	-433.729892	448.508484	958.860391	-61.917218	530.365083	927.129712	-65.743774	580.838582	855.662872	-65.996731	549.899873	948.672647	-88.467278	632.363912	765.439972	-95.569367	615.004073	752.191496	-196.643592	536.406809	729.118386	-70.099711	470.446773	669.344579	-85.117637	384.814274	650.965503	-84.256279	485.031129	647.967710	-114.382593	295.944646	599.334493	-86.834541	302.434483	609.556682	-164.008037	208.887268	619.278369	-123.719792	419.926699	459.518121	-129.860807	344.453583	493.405297	-63.880890	363.820976	853.947513	-427.358130	394.034964	774.825738	-414.712731	428.050768	778.881198	-396.914749	380.071217	685.932723	-409.164825	373.364094	593.293780	-390.975524	369.914357	576.425602	-292.900260	208.898124	264.856001	-409.099905	231.586693	264.872998	-342.265648	136.641168	258.161993	-372.877262	270.611593	146.196264	-430.650807	321.521905	506.512573	-416.992926	307.878647	421.318224	-411.331856	252.075934	352.393176	-412.333747	332.532534	411.866182	-381.159940	359.510402	123.871160	-359.926781	-64.764256	852.577105	-240.647396	21.115449	83.910651	-442.101527	21.120080	83.996087	-43.977021	
